<?xml version="1.0" standalone="no"?>
<!DOCTYPE svg PUBLIC "-//W3C//DTD SVG 20010904//EN"
 "http://www.w3.org/TR/2001/REC-SVG-20010904/DTD/svg10.dtd">
<svg version="1.0" xmlns="http://www.w3.org/2000/svg"
 width="431.000000pt" height="431.000000pt" viewBox="0 0 431.000000 431.000000"
 preserveAspectRatio="xMidYMid meet">
<metadata>
Created by potrace 1.11, written by Peter Selinger 2001-2013
</metadata>
<g transform="translate(0.000000,431.000000) scale(0.100000,-0.100000)"
fill="#000000" stroke="none">
<path d="M245 4292 c-91 -31 -157 -98 -190 -191 -13 -39 -15 -252 -12 -1925
l2 -1881 30 -55 c17 -30 40 -63 53 -73 12 -10 29 -25 36 -33 8 -8 19 -14 25
-14 6 0 20 -9 31 -20 11 -11 20 -15 20 -10 0 7 6 7 19 0 11 -5 61 -10 111 -10
70 0 90 -3 84 -12 -6 -10 -4 -10 7 -1 19 19 483 19 473 1 -6 -10 -4 -10 7 0
10 9 106 12 407 12 312 0 392 -3 386 -12 -6 -10 -4 -10 7 0 19 18 483 18 473
0 -6 -10 -4 -10 7 -1 19 19 803 19 793 1 -6 -10 -4 -10 7 -1 19 19 484 19 473
1 -6 -10 -5 -10 7 -1 11 9 87 13 274 13 200 1 267 5 293 16 19 7 39 11 45 7 5
-3 8 -2 5 3 -3 5 10 19 31 32 45 29 83 82 105 147 15 47 16 204 14 1925 l-3
1875 -21 46 c-28 60 -93 125 -153 153 l-46 21 -1875 2 c-1758 2 -1878 1 -1925
-15z"/>
</g>
</svg>
